<?xml version="1.0" encoding="UTF-8" standalone="no"?>
<!DOCTYPE svg PUBLIC "-//W3C//DTD SVG 1.1//EN" "http://www.w3.org/Graphics/SVG/1.1/DTD/svg11.dtd">
<svg width="100%" height="100%" viewBox="0 0 1026 309" version="1.1" xmlns="http://www.w3.org/2000/svg" xmlns:xlink="http://www.w3.org/1999/xlink" xml:space="preserve" xmlns:serif="http://www.serif.com/" style="fill-rule:evenodd;clip-rule:evenodd;stroke-linejoin:round;stroke-miterlimit:2;">
    <g id="Artboard1" transform="matrix(1.28238,0,0,0.51368,0,0)">
        <rect x="0" y="0" width="800" height="600" style="fill:none;"/>
        <g transform="matrix(0.97114,0,0,2.42441,-128.902,-530.046)">
            <text x="347.233px" y="376.167px" style="font-family:'MerriweatherSans-Bold', 'Merriweather Sans';font-weight:700;font-size:115.628px;fill:white;">OUIP<tspan x="631.62px " y="376.167px ">A</tspan>INT</text>
        </g>
        <g id="_9287548191636190632.svg" serif:id="9287548191636190632.svg" transform="matrix(2.91973,0,0,7.019,107.484,251.149)">
            <g transform="matrix(1,0,0,1,-32,-32)">
                <path d="M61.33,9.5C61.983,8.352 62.155,6.993 61.809,5.719C61.463,4.444 60.627,3.359 59.484,2.699C58.34,2.038 56.982,1.857 55.705,2.195C54.429,2.532 53.338,3.361 52.67,4.5L44.99,17.8L2.82,25.42C2.691,25.443 2.567,25.491 2.457,25.562C2.347,25.632 2.251,25.724 2.177,25.832C2.102,25.94 2.05,26.062 2.023,26.19C1.996,26.319 1.995,26.451 2.02,26.58L8.24,61.02C8.288,61.281 8.435,61.514 8.65,61.67C8.82,61.78 9.018,61.839 9.22,61.84C9.28,61.842 9.34,61.838 9.4,61.83L60.57,52.58C60.7,52.558 60.824,52.511 60.935,52.44C61.047,52.37 61.143,52.278 61.218,52.17C61.294,52.062 61.347,51.94 61.374,51.811C61.402,51.682 61.404,51.549 61.38,51.42L55.6,19.43L61.33,9.5ZM52.9,8.1L58.1,11.1L57.1,12.83L51.9,9.83L52.9,8.1ZM52.63,12.56L54.37,13.56L43.37,32.62L41.63,31.62L52.63,12.56ZM43.76,35.16L40.61,37.95L38.39,36.67L39.24,32.54L43.76,35.16ZM59.23,50.79L10.03,59.68L4.16,27.21L43.67,20.07L37.67,30.48C37.619,30.574 37.582,30.675 37.56,30.78L37.41,31.52L37.41,31.53C35.639,32.404 34.095,33.678 32.9,35.25L32.25,36.11L29.06,34.34C26.436,32.889 23.392,32.388 20.441,32.92C17.49,33.452 14.813,34.984 12.86,37.26L10,40.61C9.831,40.814 9.749,41.076 9.771,41.34C9.794,41.603 9.919,41.848 10.12,42.02C10.297,42.176 10.525,42.261 10.76,42.26C10.906,42.261 11.05,42.23 11.183,42.169C11.316,42.109 11.435,42.02 11.53,41.91L14.38,38.56C16.032,36.634 18.298,35.337 20.796,34.887C23.293,34.437 25.869,34.862 28.09,36.09L31.03,37.72L30,39.06C29.84,39.273 29.771,39.54 29.807,39.804C29.842,40.068 29.98,40.307 30.19,40.47C30.368,40.597 30.581,40.667 30.8,40.67C30.954,40.669 31.106,40.633 31.244,40.566C31.383,40.498 31.504,40.401 31.6,40.28L34.5,36.47C35.17,35.591 35.969,34.819 36.87,34.18L36.3,36.92L35.01,40.74C34.861,41.173 34.852,41.643 34.983,42.082C35.114,42.521 35.378,42.908 35.74,43.19C35.75,43.2 35.75,43.2 35.75,43.21L38.43,47.79C38.518,47.94 38.643,48.064 38.794,48.15C38.945,48.236 39.116,48.281 39.29,48.28C39.33,48.282 39.371,48.278 39.41,48.27C39.605,48.25 39.79,48.172 39.94,48.045C40.09,47.919 40.198,47.749 40.25,47.56L40.94,45.19L42.43,47.17C42.53,47.309 42.665,47.419 42.821,47.489C42.978,47.559 43.15,47.587 43.32,47.57C43.489,47.553 43.651,47.494 43.791,47.398C43.931,47.302 44.044,47.172 44.12,47.02L45.64,44L47.35,46.28C47.45,46.419 47.585,46.529 47.741,46.599C47.898,46.669 48.07,46.697 48.24,46.68C48.409,46.663 48.571,46.604 48.711,46.508C48.85,46.412 48.964,46.282 49.04,46.13L50.56,43.11L52.27,45.39C52.349,45.495 52.448,45.584 52.561,45.651C52.673,45.717 52.799,45.761 52.929,45.78C53.059,45.798 53.191,45.791 53.318,45.759C53.445,45.726 53.565,45.669 53.67,45.59C53.775,45.511 53.864,45.413 53.931,45.3C53.997,45.187 54.041,45.061 54.06,44.931C54.079,44.801 54.071,44.669 54.039,44.542C54.006,44.415 53.949,44.295 53.87,44.19L51.19,40.61C51.088,40.474 50.952,40.367 50.796,40.298C50.64,40.23 50.469,40.203 50.3,40.22C50.131,40.235 49.968,40.293 49.826,40.387C49.685,40.481 49.569,40.609 49.49,40.76L47.98,43.79L46.27,41.5C46.169,41.362 46.034,41.254 45.878,41.185C45.721,41.117 45.55,41.091 45.38,41.11C45.21,41.124 45.047,41.18 44.905,41.275C44.763,41.369 44.648,41.498 44.57,41.65L43.06,44.68L41.35,42.39C41.238,42.242 41.087,42.128 40.914,42.061C40.741,41.994 40.553,41.976 40.37,42.01C40.187,42.041 40.017,42.124 39.879,42.247C39.741,42.371 39.641,42.532 39.59,42.71L38.98,44.77L38.18,43.4C38.406,43.275 38.609,43.113 38.78,42.92L41.44,39.88L46.13,35.73C46.21,35.658 46.278,35.574 46.33,35.48L47.71,33.09C48.344,33.361 48.95,33.692 49.52,34.08L51.7,35.59C51.918,35.725 52.179,35.772 52.43,35.72C52.681,35.668 52.902,35.522 53.048,35.311C53.195,35.101 53.255,34.842 53.216,34.589C53.177,34.336 53.042,34.107 52.84,33.95L50.66,32.44C50.045,32.017 49.392,31.652 48.71,31.35L48.72,31.34L54.05,22.11L59.23,50.79Z" style="fill:white;fill-rule:nonzero;"/>
            </g>
        </g>
    </g>
</svg>
